<svg width="45" height="35" viewBox="0 0 45 35" fill="none" xmlns="http://www.w3.org/2000/svg">
<path d="M16.875 17.5C19.1128 17.5 21.2589 16.6111 22.8412 15.0287C24.4236 13.4464 25.3125 11.3003 25.3125 9.0625C25.3125 6.82474 24.4236 4.67863 22.8412 3.09629C21.2589 1.51395 19.1128 0.625 16.875 0.625C14.6372 0.625 12.4911 1.51395 10.9088 3.09629C9.32645 4.67863 8.4375 6.82474 8.4375 9.0625C8.4375 11.3003 9.32645 13.4464 10.9088 15.0287C12.4911 16.6111 14.6372 17.5 16.875 17.5ZM2.8125 34.375C2.8125 34.375 0 34.375 0 31.5625C0 28.75 2.8125 20.3125 16.875 20.3125C30.9375 20.3125 33.75 28.75 33.75 31.5625C33.75 34.375 30.9375 34.375 30.9375 34.375H2.8125ZM30.9375 4.84375C30.9375 4.47079 31.0857 4.1131 31.3494 3.84938C31.6131 3.58566 31.9708 3.4375 32.3438 3.4375H43.5938C43.9667 3.4375 44.3244 3.58566 44.5881 3.84938C44.8518 4.1131 45 4.47079 45 4.84375C45 5.21671 44.8518 5.5744 44.5881 5.83812C44.3244 6.10184 43.9667 6.25 43.5938 6.25H32.3438C31.9708 6.25 31.6131 6.10184 31.3494 5.83812C31.0857 5.5744 30.9375 5.21671 30.9375 4.84375ZM32.3438 11.875C31.9708 11.875 31.6131 12.0232 31.3494 12.2869C31.0857 12.5506 30.9375 12.9083 30.9375 13.2812C30.9375 13.6542 31.0857 14.0119 31.3494 14.2756C31.6131 14.5393 31.9708 14.6875 32.3438 14.6875H43.5938C43.9667 14.6875 44.3244 14.5393 44.5881 14.2756C44.8518 14.0119 45 13.6542 45 13.2812C45 12.9083 44.8518 12.5506 44.5881 12.2869C44.3244 12.0232 43.9667 11.875 43.5938 11.875H32.3438ZM37.9688 20.3125C37.5958 20.3125 37.2381 20.4607 36.9744 20.7244C36.7107 20.9881 36.5625 21.3458 36.5625 21.7188C36.5625 22.0917 36.7107 22.4494 36.9744 22.7131C37.2381 22.9768 37.5958 23.125 37.9688 23.125H43.5938C43.9667 23.125 44.3244 22.9768 44.5881 22.7131C44.8518 22.4494 45 22.0917 45 21.7188C45 21.3458 44.8518 20.9881 44.5881 20.7244C44.3244 20.4607 43.9667 20.3125 43.5938 20.3125H37.9688ZM37.9688 28.75C37.5958 28.75 37.2381 28.8982 36.9744 29.1619C36.7107 29.4256 36.5625 29.7833 36.5625 30.1562C36.5625 30.5292 36.7107 30.8869 36.9744 31.1506C37.2381 31.4143 37.5958 31.5625 37.9688 31.5625H43.5938C43.9667 31.5625 44.3244 31.4143 44.5881 31.1506C44.8518 30.8869 45 30.5292 45 30.1562C45 29.7833 44.8518 29.4256 44.5881 29.1619C44.3244 28.8982 43.9667 28.75 43.5938 28.75H37.9688Z" fill="#6A67B8"/>
</svg>
