<svg width="45" height="45" viewBox="0 0 45 45" fill="none" xmlns="http://www.w3.org/2000/svg">
<path d="M16.875 22.5C19.1128 22.5 21.2589 21.6111 22.8412 20.0287C24.4236 18.4464 25.3125 16.3003 25.3125 14.0625C25.3125 11.8247 24.4236 9.67863 22.8412 8.09629C21.2589 6.51395 19.1128 5.625 16.875 5.625C14.6372 5.625 12.4911 6.51395 10.9088 8.09629C9.32645 9.67863 8.4375 11.8247 8.4375 14.0625C8.4375 16.3003 9.32645 18.4464 10.9088 20.0287C12.4911 21.6111 14.6372 22.5 16.875 22.5ZM2.8125 39.375C2.8125 39.375 0 39.375 0 36.5625C0 33.75 2.8125 25.3125 16.875 25.3125C30.9375 25.3125 33.75 33.75 33.75 36.5625C33.75 39.375 30.9375 39.375 30.9375 39.375H2.8125ZM30.9375 9.84375C30.9375 9.47079 31.0857 9.1131 31.3494 8.84938C31.6131 8.58566 31.9708 8.4375 32.3438 8.4375H43.5938C43.9667 8.4375 44.3244 8.58566 44.5881 8.84938C44.8518 9.1131 45 9.47079 45 9.84375C45 10.2167 44.8518 10.5744 44.5881 10.8381C44.3244 11.1018 43.9667 11.25 43.5938 11.25H32.3438C31.9708 11.25 31.6131 11.1018 31.3494 10.8381C31.0857 10.5744 30.9375 10.2167 30.9375 9.84375ZM32.3438 16.875C31.9708 16.875 31.6131 17.0232 31.3494 17.2869C31.0857 17.5506 30.9375 17.9083 30.9375 18.2812C30.9375 18.6542 31.0857 19.0119 31.3494 19.2756C31.6131 19.5393 31.9708 19.6875 32.3438 19.6875H43.5938C43.9667 19.6875 44.3244 19.5393 44.5881 19.2756C44.8518 19.0119 45 18.6542 45 18.2812C45 17.9083 44.8518 17.5506 44.5881 17.2869C44.3244 17.0232 43.9667 16.875 43.5938 16.875H32.3438ZM37.9688 25.3125C37.5958 25.3125 37.2381 25.4607 36.9744 25.7244C36.7107 25.9881 36.5625 26.3458 36.5625 26.7188C36.5625 27.0917 36.7107 27.4494 36.9744 27.7131C37.2381 27.9768 37.5958 28.125 37.9688 28.125H43.5938C43.9667 28.125 44.3244 27.9768 44.5881 27.7131C44.8518 27.4494 45 27.0917 45 26.7188C45 26.3458 44.8518 25.9881 44.5881 25.7244C44.3244 25.4607 43.9667 25.3125 43.5938 25.3125H37.9688ZM37.9688 33.75C37.5958 33.75 37.2381 33.8982 36.9744 34.1619C36.7107 34.4256 36.5625 34.7833 36.5625 35.1562C36.5625 35.5292 36.7107 35.8869 36.9744 36.1506C37.2381 36.4143 37.5958 36.5625 37.9688 36.5625H43.5938C43.9667 36.5625 44.3244 36.4143 44.5881 36.1506C44.8518 35.8869 45 35.5292 45 35.1562C45 34.7833 44.8518 34.4256 44.5881 34.1619C44.3244 33.8982 43.9667 33.75 43.5938 33.75H37.9688Z" fill="#5B5B5B"/>
</svg>
